<?xml version="1.0" encoding="UTF-8" standalone="no"?>
<!-- Created with Inkscape (http://www.inkscape.org/) -->

<svg
   xmlns:dc="http://purl.org/dc/elements/1.1/"
   xmlns:cc="http://creativecommons.org/ns#"
   xmlns:rdf="http://www.w3.org/1999/02/22-rdf-syntax-ns#"
   xmlns:svg="http://www.w3.org/2000/svg"
   xmlns="http://www.w3.org/2000/svg"
   version="1.1"
   width="370"
   height="300"
   id="svg2">
  <defs
     id="defs7" />
  <metadata
     id="metadata129">
    <rdf:RDF>
      <cc:Work
         rdf:about="">
        <dc:format>image/svg+xml</dc:format>
        <dc:type
           rdf:resource="http://purl.org/dc/dcmitype/StillImage" />
        <dc:title></dc:title>
      </cc:Work>
    </rdf:RDF>
  </metadata>
  <path
     d="m 160.6356951871657,175.0037878787879 0,35.4913101604278 -19.0565953654189,0 0,5.4995543672014 19.0565953654189,0 0,7.3540552584671 2.7497771836008,5.6913992869875 2.7497771836008,-5.6913992869875 0,-7.3540552584671 16.114973262032,0 0,7.3540552584671 L 185,229.0401069518717 l 2.7497771836008,-5.6913992869875 0,-7.3540552584671 16.1149732620321,0 0,7.3540552584671 2.7497771836008,5.6913992869875 2.7497771836008,-5.6913992869875 0,-7.3540552584671 19.0565953654189,0 0,-5.4995543672014 -19.0565953654189,0 0,-35.4913101604278 -5.4995543672016,0 0,35.4913101604279 -16.1149732620321,0 0,-35.4913101604279 -5.4995543672014,0 0,35.4913101604279 -16.114973262032,0 0,-35.4913101604279 -5.4995543672016,0 z"
     id="rect2156"
     style="fill:#000000;stroke:#000000;stroke-width:3;stroke-linecap:round;stroke-linejoin:round" />
  <path
     d="m 70.53253119429594,93.27785204991087 0,37.09001782531192 229.19073083778948,0 0,-37.09001782531192 -50.583110516934,0 0,17.13814616755792 -32.4217914438503,0 0,-17.13814616755792 -63.1809269162209,0 0,17.13814616755792 -32.4217914438507,0 0,-17.13814616755792 z"
     id="rect1123"
     style="fill:#e9e9e9;stroke:#000000;stroke-width:3;stroke-linecap:round;stroke-linejoin:round" />
  <rect
     width="42.87901306152344"
     height="24.60585594177246"
     x="70.53253173828125"
     y="130.3678741455078"
     id="rect1130"
     style="fill:#e9e9e9;stroke:#000000;stroke-width:3;stroke-linecap:round;stroke-linejoin:round" />
  <rect
     width="35.98130798339844"
     height="24.60585594177246"
     x="113.4115600585938"
     y="130.3678741455078"
     id="rect1132"
     style="fill:#e9e9e9;stroke:#000000;stroke-width:3;stroke-linecap:round;stroke-linejoin:round" />
  <rect
     width="35.75473403930664"
     height="24.60585594177246"
     x="149.3929138183594"
     y="130.3678741455078"
     id="rect1134"
     style="fill:#e9e9e9;stroke:#000000;stroke-width:3;stroke-linecap:round;stroke-linejoin:round" />
  <rect
     width="53.85870742797852"
     height="24.60585594177246"
     x="131.4022064208984"
     y="154.9737396240234"
     id="rect1136"
     style="fill:#e9e9e9;stroke:#000000;stroke-width:3;stroke-linecap:round;stroke-linejoin:round" />
  <rect
     width="53.85870742797852"
     height="24.60585594177246"
     x="77.54348754882812"
     y="154.9737396240234"
     id="rect1138"
     style="fill:#e9e9e9;stroke:#000000;stroke-width:3;stroke-linecap:round;stroke-linejoin:round" />
  <rect
     width="42.87901306152344"
     height="24.60585594177246"
     x="70.53253173828125"
     y="179.57958984375"
     id="rect1140"
     style="fill:#e9e9e9;stroke:#000000;stroke-width:3;stroke-linecap:round;stroke-linejoin:round" />
  <rect
     width="35.98130798339844"
     height="24.60585594177246"
     x="113.4114990234375"
     y="179.57958984375"
     id="rect1142"
     style="fill:#e9e9e9;stroke:#000000;stroke-width:3;stroke-linecap:round;stroke-linejoin:round" />
  <rect
     width="53.85870742797852"
     height="24.60585594177246"
     x="77.54348754882812"
     y="204.1854553222656"
     id="rect1148"
     style="fill:#e9e9e9;stroke:#000000;stroke-width:3;stroke-linecap:round;stroke-linejoin:round" />
  <rect
     width="42.87901306152344"
     height="24.60585594177246"
     x="70.53253173828125"
     y="228.7913055419922"
     id="rect1159"
     style="fill:#e9e9e9;stroke:#000000;stroke-width:3;stroke-linecap:round;stroke-linejoin:round" />
  <rect
     width="35.98130798339844"
     height="24.60585594177246"
     x="113.4115600585938"
     y="228.7913055419922"
     id="rect1161"
     style="fill:#e9e9e9;stroke:#000000;stroke-width:3;stroke-linecap:round;stroke-linejoin:round" />
  <rect
     width="53.85870742797852"
     height="24.60585594177246"
     x="77.54348754882812"
     y="253.3971710205078"
     id="rect1167"
     style="fill:#e9e9e9;stroke:#000000;stroke-width:3;stroke-linecap:round;stroke-linejoin:round" />
  <path
     d="m 70.53457754010695,278.0245098039215 0,15.4754901960785 42.84536541889485,0 0,-15.4754901960785 -42.84536541889487,0 z"
     id="rect1171"
     style="fill:#e9e9e9;stroke:#000000;stroke-width:3;stroke-linecap:round;stroke-linejoin:round" />
  <path
     d="m 113.3799429590018,278.0245098039215 0,15.4754901960785 36.0028966131907,0 0,-15.4754901960785 -36.0028966131907,0 z"
     id="rect1173"
     style="fill:#e9e9e9;stroke:#000000;stroke-width:3;stroke-linecap:round;stroke-linejoin:round" />
  <rect
     width="42.87901306152344"
     height="24.60585594177246"
     x="-299.7232666015625"
     y="130.3678741455078"
     transform="scale(-1,1)"
     id="rect1258"
     style="fill:#e9e9e9;stroke:#000000;stroke-width:3;stroke-linecap:round;stroke-linejoin:round" />
  <rect
     width="35.98130798339844"
     height="24.60585594177246"
     x="-256.8441467285156"
     y="130.3678741455078"
     transform="scale(-1,1)"
     id="rect1260"
     style="fill:#e9e9e9;stroke:#000000;stroke-width:3;stroke-linecap:round;stroke-linejoin:round" />
  <rect
     width="35.75473403930664"
     height="24.60585594177246"
     x="-220.8628692626953"
     y="130.3678741455078"
     transform="scale(-1,1)"
     id="rect1262"
     style="fill:#e9e9e9;stroke:#000000;stroke-width:3;stroke-linecap:round;stroke-linejoin:round" />
  <rect
     width="53.85870742797852"
     height="24.60585594177246"
     x="-238.8535766601562"
     y="154.9737396240234"
     transform="scale(-1,1)"
     id="rect1264"
     style="fill:#e9e9e9;stroke:#000000;stroke-width:3;stroke-linecap:round;stroke-linejoin:round" />
  <rect
     width="53.85870742797852"
     height="24.60585594177246"
     x="-292.7123107910156"
     y="154.9737396240234"
     transform="scale(-1,1)"
     id="rect1266"
     style="fill:#e9e9e9;stroke:#000000;stroke-width:3;stroke-linecap:round;stroke-linejoin:round" />
  <rect
     width="42.87901306152344"
     height="24.60585594177246"
     x="-299.7232666015625"
     y="179.57958984375"
     transform="scale(-1,1)"
     id="rect1270"
     style="fill:#e9e9e9;stroke:#000000;stroke-width:3;stroke-linecap:round;stroke-linejoin:round" />
  <rect
     width="35.98130798339844"
     height="24.60585594177246"
     x="-256.8442993164062"
     y="179.57958984375"
     transform="scale(-1,1)"
     id="rect1272"
     style="fill:#e9e9e9;stroke:#000000;stroke-width:3;stroke-linecap:round;stroke-linejoin:round" />
  <rect
     width="53.85870742797852"
     height="24.60585594177246"
     x="-292.7123107910156"
     y="204.1854553222656"
     transform="scale(-1,1)"
     id="rect1278"
     style="fill:#e9e9e9;stroke:#000000;stroke-width:3;stroke-linecap:round;stroke-linejoin:round" />
  <rect
     width="42.87901306152344"
     height="24.60585594177246"
     x="-299.7232666015625"
     y="228.7913055419922"
     transform="scale(-1,1)"
     id="rect1282"
     style="fill:#e9e9e9;stroke:#000000;stroke-width:3;stroke-linecap:round;stroke-linejoin:round" />
  <rect
     width="35.98130798339844"
     height="24.60585594177246"
     x="-256.8441467285156"
     y="228.7913055419922"
     transform="scale(-1,1)"
     id="rect1284"
     style="fill:#e9e9e9;stroke:#000000;stroke-width:3;stroke-linecap:round;stroke-linejoin:round" />
  <rect
     width="53.85870742797852"
     height="24.60585594177246"
     x="-292.7123107910156"
     y="253.3971710205078"
     transform="scale(-1,1)"
     id="rect1290"
     style="fill:#e9e9e9;stroke:#000000;stroke-width:3;stroke-linecap:round;stroke-linejoin:round" />
  <path
     d="m 256.8159946524064,278.0245098039215 0,15.4754901960785 42.9093137254902,0 0,-15.4754901960785 -42.9093137254902,0 z"
     id="rect1292"
     style="fill:#e9e9e9;stroke:#000000;stroke-width:3;stroke-linecap:round;stroke-linejoin:round" />
  <path
     d="m 220.877046345811,278.0245098039215 0,15.4754901960785 35.9389483065954,0 0,-15.4754901960785 -35.9389483065954,0 z"
     id="rect1294"
     style="fill:#e9e9e9;stroke:#000000;stroke-width:3;stroke-linecap:round;stroke-linejoin:round" />
  <path
     d="M 49.94322281639928,41.73551693404638 18.73644919786096,47.10717468805707 7.161805704099831,293.5 92.72463992869873,293.5 81.21394474153295,47.10717468805707 49.94322281639928,41.73551693404638 z"
     id="path970"
     style="fill:#e9e9e9;stroke:#000000;stroke-width:3;stroke-linecap:round;stroke-linejoin:round" />
  <path
     d="M 9.909536541889547,6.5 7.159759358288838,41.28787878787878 18.03097147950096,54.5891265597148 l 31.91020499108735,0 31.9102049910873,0 L 92.72259358288772,41.28787878787878 89.97281639928702,6.5 l -19.69607843137254,0 0,20.33556149732621 -10.16778074866308,0 0,-20.33556149732621 -10.16778074866309,0 -10.16778074866311,0 0,20.33556149732621 -10.16778074866312,0 0,-20.33556149732621 -19.696078431372537,0 z"
     id="path959"
     style="fill:#e9e9e9;stroke:#000000;stroke-width:3;stroke-linecap:round;stroke-linejoin:round" />
  <path
     d="m 6.52027629233518,116.3631907308378 0,27.2419786096257 43.420900178253127,0 43.42090017825306,0 0,-27.2419786096257 -43.42090017825305,0 -43.420900178253113,0 z"
     id="rect972"
     style="fill:#e9e9e9;stroke:#000000;stroke-width:3;stroke-linecap:round;stroke-linejoin:round" />
  <path
     d="m 62.30875674891276,165.7312834224603 a 12.35611334544027,12.35611334544027 0 0 1 -24.71222669088053,0 12.35611334544027,12.35611334544027 0 1 1 24.71222669088053,0 z"
     id="path974"
     style="fill:#e9e9e9;stroke:#000000;stroke-width:3;stroke-linecap:round;stroke-linejoin:round" />
  <path
     d="m 49.94117647058831,58.298128342246 0,2.04634581105168 27.8175133689839,0 -0.0639483065954,-2.04634581105168 -27.75356506238854,0 z m 0,8.18538324420673 0,2.04634581105171 28.2012032085561,0 -0.0639483065954,-2.04634581105171 -28.13725490196074,0 z m 0,8.18538324420679 0,2.04634581105168 28.58489304812831,0 -0.0639483065954,-2.04634581105168 -28.52094474153304,0 z m 0,8.18538324420678 0,2.04634581105169 29.03253119429586,0 -0.12789661319073,-2.04634581105169 -28.90463458110513,0 z m 0,8.18538324420678 0,2.04634581105171 29.41622103386803,0 -0.12789661319073,-2.04634581105171 -29.28832442067745,0 z m 0,8.18538324420675 0,2.04634581105178 29.79991087344026,0 -0.12789661319073,-2.04634581105178 -29.67201426024952,0 z m 0,8.18538324420688 0,2.0463458110517 30.18360071301243,0 -0.12789661319076,-2.0463458110517 -30.05570409982167,0 z m 0,13.4291443850267 0,2.0463458110517 39.45610516934043,0 0,-2.0463458110517 -39.45610516934041,0 z m 0,8.1853832442068 0,2.0463458110516 39.45610516934043,0 0,-2.0463458110516 -39.45610516934041,0 z m 0,8.1853832442068 0,2.0463458110516 39.45610516934043,0 0,-2.0463458110516 -39.45610516934041,0 z m 0,11.1270053475935 0,2.0463458110517 32.10204991087339,0 -0.12789661319073,-2.0463458110517 -31.97415329768265,0 z m 11.51069518716573,8.1853832442068 c 0.51468501346949,0.6431619844858 1.00397632174181,1.3218109033037 1.40686274509807,2.0463458110517 l 19.5681818181818,0 -0.12789661319077,-2.0463458110517 -20.84714795008909,0 z m 3.19741532976829,8.1853832442067 c 0.022642961518,0.3345845858179 0.0639483065954,0.6828461416951 0.0639483065954,1.0231729055259 0,0.3403267638309 -0.0413053450774,0.6885883197081 -0.0639483065954,1.0231729055259 l 18.16131907308377,0 -0.12789661319073,-2.0463458110518 -18.03342245989303,0 z m -1.79055258467022,8.1853832442068 c -0.40288642335628,0.724534907748 -0.89217773162861,1.4031838265659 -1.40686274509807,2.0463458110517 l 21.74242424242423,0 -0.12789661319071,-2.0463458110517 -20.20766488413545,0 z m -12.91755793226388,8.1853832442068 0,2.0463458110517 33.63680926916222,0 -0.1278966131907,-2.0463458110517 -33.50891265597154,0 z m 0,8.1853832442068 0,2.0463458110517 34.02049910873447,0 -0.12789661319076,-2.0463458110517 -33.89260249554363,0 z m 0,8.1853832442067 0,2.0463458110518 34.40418894830661,0 -0.12789661319073,-2.0463458110518 -34.27629233511585,0 z m 0,8.1853832442068 0,2.0463458110517 34.78787878787884,0 -0.12789661319073,-2.0463458110517 -34.65998217468806,0 z m 0,8.1853832442068 0,2.0463458110517 35.171568627451,0 -0.0639483065954,-2.0463458110517 -35.10762032085558,0 z m 0,8.1853832442068 0,2.0463458110517 35.5552584670232,0 -0.0639483065954,-2.0463458110517 -35.49131016042775,0 z m 0,8.1853832442067 0,2.0463458110518 35.93894830659539,0 -0.0639483065954,-2.0463458110518 -35.87500000000004,0 z m 0,8.1853832442068 0,2.0463458110517 36.32263814616757,0 -0.0639483065954,-2.0463458110517 -36.25868983957222,0 z m 0,8.1853832442068 0,2.0463458110517 36.70632798573982,0 -0.0639483065954,-2.0463458110517 -36.64237967914439,0 z m 0,8.1853832442068 0,2.0463458110517 37.09001782531198,0 -0.0639483065954,-2.0463458110517 -37.02606951871655,0 z m 0,8.1853832442068 0,2.0463458110516 37.47370766488418,0 -0.0639483065954,-2.0463458110516 -37.40975935828873,0 z m 0,8.1853832442068 0,2.0463458110515 37.85739750445635,0 -0.0639483065954,-2.0463458110515 -37.79344919786092,0 z m 0,8.1853832442067 0,2.0463458110517 38.24108734402853,0 -0.0639483065954,-2.0463458110517 -38.17713903743321,0 z"
     id="rect976"
     style="fill:#000000" />
  <path
     d="M 320.0608698752228,41.73551693404638 288.8540962566844,47.10717468805707 277.2794527629233,293.5 l 85.562834224599,0 -11.5106951871659,-246.39282531194294 -31.2707219251336,-5.3716577540107 z"
     id="path1099"
     style="fill:#e9e9e9;stroke:#000000;stroke-width:3;stroke-linecap:round;stroke-linejoin:round" />
  <path
     d="m 280.0271836007129,6.5 -2.7497771836007,34.787878787878781 10.8712121212121,13.30124777183602 31.9102049910875,0 31.9102049910875,0 L 362.8402406417114,41.28787878787878 360.0904634581107,6.5 l -19.6960784313723,0 0,20.33556149732621 -10.1677807486632,0 0,-20.33556149732621 -10.1677807486629,0 -10.1677807486631,0 0,20.33556149732621 -10.1677807486632,0 0,-20.33556149732621 -19.6960784313724,0 z"
     id="path1101"
     style="fill:#e9e9e9;stroke:#000000;stroke-width:3;stroke-linecap:round;stroke-linejoin:round" />
  <path
     d="m 276.6379233511586,116.3631907308378 0,27.2419786096257 43.4209001782531,0 43.420900178253,0 0,-27.2419786096257 -43.420900178253,0 -43.4209001782531,0 z"
     id="path1103"
     style="fill:#e9e9e9;stroke:#000000;stroke-width:3;stroke-linecap:round;stroke-linejoin:round" />
  <path
     d="m 332.4264038077363,165.7312834224603 a 12.35611334544035,12.35611334544035 0 0 1 -24.7122266908807,0 12.35611334544035,12.35611334544035 0 1 1 24.7122266908807,0 z"
     id="path1105"
     style="fill:#e9e9e9;stroke:#000000;stroke-width:3;stroke-linecap:round;stroke-linejoin:round" />
  <path
     d="m 320.0588235294117,58.298128342246 0,2.04634581105168 27.8175133689839,0 -0.063948306595,-2.04634581105168 -27.7535650623885,0 z m 0,8.18538324420673 0,2.04634581105171 28.2012032085561,0 -0.063948306595,-2.04634581105171 -28.1372549019609,0 z m 0,8.18538324420679 0,2.04634581105168 28.5848930481283,0 -0.063948306595,-2.04634581105168 -28.5209447415329,0 z m 0,8.18538324420678 0,2.04634581105169 29.0325311942959,0 -0.1278966131908,-2.04634581105169 -28.9046345811051,0 z m 0,8.18538324420678 0,2.04634581105171 29.416221033868,0 -0.1278966131907,-2.04634581105171 -29.2883244206773,0 z m 0,8.18538324420675 0,2.04634581105178 29.7999108734402,0 -0.1278966131908,-2.04634581105178 -29.6720142602495,0 z m 0,8.18538324420688 0,2.0463458110517 30.1836007130124,0 -0.1278966131907,-2.0463458110517 -30.0557040998217,0 z m 0,13.4291443850267 0,2.0463458110517 39.4561051693404,0 0,-2.0463458110517 -39.4561051693404,0 z m 0,8.1853832442068 0,2.0463458110516 39.4561051693404,0 0,-2.0463458110516 -39.4561051693404,0 z m 0,8.1853832442068 0,2.0463458110516 39.4561051693404,0 0,-2.0463458110516 -39.4561051693404,0 z m 0,11.1270053475935 0,2.0463458110517 32.1020499108734,0 -0.1278966131907,-2.0463458110517 -31.9741532976827,0 z m 11.5106951871658,8.1853832442068 c 0.514685013469,0.6431619844858 1.0039763217417,1.3218109033037 1.4068627450982,2.0463458110517 l 19.5681818181818,0 -0.1278966131908,-2.0463458110517 -20.8471479500889,0 z m 3.1974153297682,8.1853832442067 c 0.022642961518,0.3345845858179 0.063948306595,0.6828461416951 0.063948306595,1.0231729055259 0,0.3403267638309 -0.041305345078,0.6885883197081 -0.063948306595,1.0231729055259 l 18.1613190730838,0 -0.1278966131907,-2.0463458110518 -18.0334224598931,0 z m -1.79055258467,8.1853832442068 c -0.4028864233563,0.724534907748 -0.892177731629,1.4031838265659 -1.4068627450982,2.0463458110517 l 21.7424242424241,0 -0.1278966131907,-2.0463458110517 -20.2076648841354,0 z m -12.9175579322638,8.1853832442068 0,2.0463458110517 33.6368092691622,0 -0.1278966131908,-2.0463458110517 -33.5089126559715,0 z m 0,8.1853832442068 0,2.0463458110517 34.0204991087344,0 -0.1278966131908,-2.0463458110517 -33.8926024955436,0 z m 0,8.1853832442067 0,2.0463458110518 34.4041889483067,0 -0.1278966131908,-2.0463458110518 -34.2762923351158,0 z m 0,8.1853832442068 0,2.0463458110517 34.7878787878787,0 -0.1278966131908,-2.0463458110517 -34.659982174688,0 z m 0,8.1853832442068 0,2.0463458110517 35.1715686274509,0 -0.063948306595,-2.0463458110517 -35.1076203208555,0 z m 0,8.1853832442068 0,2.0463458110517 35.5552584670232,0 -0.063948306595,-2.0463458110517 -35.4913101604277,0 z m 0,8.1853832442067 0,2.0463458110518 35.9389483065953,0 -0.063948306595,-2.0463458110518 -35.8749999999999,0 z m 0,8.1853832442068 0,2.0463458110517 36.3226381461675,0 -0.063948306595,-2.0463458110517 -36.2586898395721,0 z m 0,8.1853832442068 0,2.0463458110517 36.7063279857397,0 -0.063948306595,-2.0463458110517 -36.6423796791443,0 z m 0,8.1853832442068 0,2.0463458110517 37.0900178253121,0 -0.063948306595,-2.0463458110517 -37.0260695187165,0 z m 0,8.1853832442068 0,2.0463458110516 37.4737076648841,0 -0.063948306595,-2.0463458110516 -37.4097593582887,0 z m 0,8.1853832442068 0,2.0463458110515 37.8573975044563,0 -0.063948306595,-2.0463458110515 -37.793449197861,0 z m 0,8.1853832442067 0,2.0463458110517 38.2410873440284,0 -0.063948306595,-2.0463458110517 -38.1771390374331,0 z"
     id="path1107"
     style="fill:#000000" />
  <path
     d="m 185.1278966131906,149.1686720142603 c -5.7223050795049,0 -11.2684733201652,0.7907551634726 -16.5626114081996,2.1742424242424 l 7.86564171123,29.3522727272727 c 2.7708656911847,-0.6826738206968 5.6713580519465,-1.0871212121212 8.6969696969696,-1.0871212121212 3.0477916355215,0 5.971925947433,0.3946997977681 8.7609180035652,1.0871212121212 l 7.86564171123,-29.3522727272727 c -5.312197869918,-1.3936360047549 -10.8825912041194,-2.1742424242424 -16.6265597147951,-2.1742424242424 z"
     id="rect1410"
     style="fill:#e9e9e9;stroke:#000000;stroke-width:3;stroke-linecap:round;stroke-linejoin:round" />
  <path
     d="m 170.0360962566844,156.9064171122995 c -10.1045643332827,2.6211451014186 -19.1226697331267,7.8234818028188 -26.3467023172905,14.8360071301248 l 17.3299910873441,17.329991087344 c 4.1745551478736,-4.0143982603853 9.4786276661639,-6.9155025980137 15.411541889483,-8.3772281639929 l -6.3948306595366,-23.7887700534759 z"
     id="path1415"
     style="fill:#e9e9e9;stroke:#000000;stroke-width:3;stroke-linecap:round;stroke-linejoin:round" />
  <path
     d="m 143.6893939393939,171.7424242424243 c -7.3309444894458,7.1163070357698 -12.8237423369553,16.0753620828057 -15.6033868092692,26.1548573975044 l 24.0445632798574,6.4587789661319 c 1.5780004735277,-5.946756353662 4.6173900568573,-11.1760940007134 8.8888146167559,-15.2836452762923 l -17.3299910873441,-17.329991087344 z"
     id="path1417"
     style="fill:#e9e9e9;stroke:#000000;stroke-width:3;stroke-linecap:round;stroke-linejoin:round" />
  <path
     d="m 128.0860071301247,197.8972816399287 c -1.3469191273876,4.8841731987679 -2.0463458110525,10.0413918259833 -2.0463458110516,15.3475935828877 l 24.8758912655971,0 c 0,-3.0925915833304 0.467007065066,-6.0699068814761 1.2150178253119,-8.8888146167559 l -24.0445632798574,-6.4587789661318 z"
     id="path1419"
     style="fill:#e9e9e9;stroke:#000000;stroke-width:3;stroke-linecap:round;stroke-linejoin:round" />
  <path
     d="m 200.2196969696969,156.9064171122995 -6.3308823529411,23.7887700534759 c 5.9223865482775,1.4703474185553 11.1824312410444,4.425517309257 15.3475935828877,8.4411764705882 l 17.329991087344,-17.329991087344 c -7.2292264130536,-7.0280151205685 -16.2274506902886,-12.2750004206217 -26.3467023172905,-14.8999554367201 z"
     id="path1431"
     style="fill:#e9e9e9;stroke:#000000;stroke-width:3;stroke-linecap:round;stroke-linejoin:round" />
  <path
     d="m 226.5663992869874,171.8063725490196 -17.3299910873439,17.329991087344 c 4.2559071917019,4.1031468407472 7.3145643510216,9.2870734204273 8.8888146167558,15.219696969697 l 24.0445632798574,-6.4587789661319 c -2.7756630962287,-10.0650581224622 -8.2883122119327,-18.9794352013455 -15.6033868092693,-26.0909090909091 z"
     id="path1433"
     style="fill:#e9e9e9;stroke:#000000;stroke-width:3;stroke-linecap:round;stroke-linejoin:round" />
  <path
     d="m 242.1697860962567,197.9612299465241 -24.0445632798575,6.3948306595365 c 0.7480107602457,2.8189077352797 1.2150178253119,5.7962230334254 1.2150178253119,8.8888146167558 l 24.8758912655972,0 c 2e-13,-5.2847675929262 -0.7099224229968,-10.4171455865025 -2.0463458110517,-15.2836452762923 z"
     id="path1435"
     style="fill:#e9e9e9;stroke:#000000;stroke-width:3;stroke-linecap:round;stroke-linejoin:round" />
  <path
     d="m 126.0396613190731,213.2448752228164 0,16.8823529411765 24.8758912655971,0 0,-16.8823529411765 -24.8758912655971,0 z"
     id="rect1437"
     style="fill:#e9e9e9;stroke:#000000;stroke-width:3;stroke-linecap:round;stroke-linejoin:round" />
  <path
     d="m 126.0396613190731,230.1272281639929 0,16.9463012477718 24.8758912655971,0 0,-16.9463012477718 -24.8758912655971,0 z"
     id="rect1439"
     style="fill:#e9e9e9;stroke:#000000;stroke-width:3;stroke-linecap:round;stroke-linejoin:round" />
  <path
     d="m 126.0396613190731,247.0735294117647 0,16.8823529411765 24.8758912655971,0 0,-3.1334670231729 0,-13.7488859180036 -24.8758912655971,0 z"
     id="rect1441"
     style="fill:#e9e9e9;stroke:#000000;stroke-width:3;stroke-linecap:round;stroke-linejoin:round" />
  <path
     d="m 126.0396613190731,263.9558823529412 0,16.9463012477717 24.8758912655971,0 0,-16.9463012477717 -24.8758912655971,0 z"
     id="rect1443"
     style="fill:#e9e9e9;stroke:#000000;stroke-width:3;stroke-linecap:round;stroke-linejoin:round" />
  <path
     d="m 126.0417076648841,280.902183600713 0,12.597816399287 24.8758912655971,0 0,-12.597816399287 -24.8758912655971,0 z"
     id="rect1445"
     style="fill:#e9e9e9;stroke:#000000;stroke-width:3;stroke-linecap:round;stroke-linejoin:round" />
  <path
     d="m 219.3402406417111,213.2448752228164 0,16.8823529411765 24.8758912655972,0 0,-16.8823529411765 -24.8758912655972,0 z"
     id="rect1456"
     style="fill:#e9e9e9;stroke:#000000;stroke-width:3;stroke-linecap:round;stroke-linejoin:round" />
  <path
     d="m 219.3402406417111,230.1272281639929 0,16.9463012477718 24.8758912655972,0 0,-16.9463012477718 -24.8758912655972,0 z"
     id="rect1458"
     style="fill:#e9e9e9;stroke:#000000;stroke-width:3;stroke-linecap:round;stroke-linejoin:round" />
  <path
     d="m 219.3402406417111,247.0735294117647 0,13.7488859180036 0,3.1334670231729 24.8758912655972,0 0,-16.8823529411765 -24.8758912655972,0 z"
     id="rect1460"
     style="fill:#e9e9e9;stroke:#000000;stroke-width:3;stroke-linecap:round;stroke-linejoin:round" />
  <path
     d="m 219.3402406417111,263.9558823529412 0,16.9463012477717 24.8758912655972,0 0,-16.9463012477717 -24.8758912655972,0 z"
     id="rect1462"
     style="fill:#e9e9e9;stroke:#000000;stroke-width:3;stroke-linecap:round;stroke-linejoin:round" />
  <path
     d="m 219.3422869875223,280.902183600713 0,12.597816399287 24.8758912655972,0 0,-12.597816399287 -24.8758912655972,0 z"
     id="rect1464"
     style="fill:#e9e9e9;stroke:#000000;stroke-width:3;stroke-linecap:round;stroke-linejoin:round" />
</svg>
